<mxfile host="app.diagrams.net" modified="2024-05-04T15:01:21.585Z" agent="Mozilla/5.0 (Windows NT 10.0; Win64; x64) AppleWebKit/537.36 (KHTML, like Gecko) Chrome/124.0.0.0 Safari/537.36" etag="4Nn9F02R_0gMSW4_Oocb" version="24.3.1" type="device">
  <diagram name="PÃ¡gina-1" id="GyshaNeHMyCVILGlN6bo">
    <mxGraphModel dx="2440" dy="1292" grid="1" gridSize="10" guides="1" tooltips="1" connect="1" arrows="1" fold="1" page="1" pageScale="1" pageWidth="1169" pageHeight="827" math="0" shadow="0">
      <root>
        <mxCell id="0" />
        <mxCell id="1" parent="0" />
        <mxCell id="usk_4YH8lnq-4AR2N6JO-113" value="" style="rounded=0;whiteSpace=wrap;html=1;" vertex="1" parent="1">
          <mxGeometry x="80" y="80" width="1160" height="630" as="geometry" />
        </mxCell>
        <mxCell id="usk_4YH8lnq-4AR2N6JO-49" value="" style="edgeStyle=orthogonalEdgeStyle;rounded=0;orthogonalLoop=1;jettySize=auto;html=1;" edge="1" parent="1" source="usk_4YH8lnq-4AR2N6JO-47" target="usk_4YH8lnq-4AR2N6JO-48">
          <mxGeometry relative="1" as="geometry" />
        </mxCell>
        <mxCell id="usk_4YH8lnq-4AR2N6JO-47" value="Conv2d" style="whiteSpace=wrap;html=1;aspect=fixed;fillColor=#e1d5e7;strokeColor=#9673a6;" vertex="1" parent="1">
          <mxGeometry x="200" y="190" width="100" height="100" as="geometry" />
        </mxCell>
        <mxCell id="usk_4YH8lnq-4AR2N6JO-51" value="" style="edgeStyle=orthogonalEdgeStyle;rounded=0;orthogonalLoop=1;jettySize=auto;html=1;" edge="1" parent="1" source="usk_4YH8lnq-4AR2N6JO-48" target="usk_4YH8lnq-4AR2N6JO-50">
          <mxGeometry relative="1" as="geometry" />
        </mxCell>
        <mxCell id="usk_4YH8lnq-4AR2N6JO-48" value="relu" style="whiteSpace=wrap;html=1;aspect=fixed;fillColor=#dae8fc;strokeColor=#6c8ebf;" vertex="1" parent="1">
          <mxGeometry x="330" y="190" width="100" height="100" as="geometry" />
        </mxCell>
        <mxCell id="usk_4YH8lnq-4AR2N6JO-50" value="BatchNorm" style="whiteSpace=wrap;html=1;aspect=fixed;fillColor=#fff2cc;strokeColor=#d6b656;" vertex="1" parent="1">
          <mxGeometry x="460" y="190" width="100" height="100" as="geometry" />
        </mxCell>
        <mxCell id="usk_4YH8lnq-4AR2N6JO-52" value="" style="endArrow=classic;html=1;rounded=0;" edge="1" parent="1">
          <mxGeometry width="50" height="50" relative="1" as="geometry">
            <mxPoint x="140" y="240" as="sourcePoint" />
            <mxPoint x="200" y="240" as="targetPoint" />
          </mxGeometry>
        </mxCell>
        <mxCell id="usk_4YH8lnq-4AR2N6JO-53" value="Input" style="text;html=1;align=center;verticalAlign=middle;resizable=0;points=[];autosize=1;strokeColor=none;fillColor=none;" vertex="1" parent="1">
          <mxGeometry x="90" y="225" width="50" height="30" as="geometry" />
        </mxCell>
        <mxCell id="usk_4YH8lnq-4AR2N6JO-54" value="" style="shape=curlyBracket;whiteSpace=wrap;html=1;rounded=1;labelPosition=left;verticalLabelPosition=middle;align=right;verticalAlign=middle;rotation=-90;" vertex="1" parent="1">
          <mxGeometry x="370" y="120" width="20" height="360" as="geometry" />
        </mxCell>
        <mxCell id="usk_4YH8lnq-4AR2N6JO-55" value="N veces" style="text;html=1;align=center;verticalAlign=middle;resizable=0;points=[];autosize=1;strokeColor=none;fillColor=none;" vertex="1" parent="1">
          <mxGeometry x="345" y="310" width="70" height="30" as="geometry" />
        </mxCell>
        <mxCell id="usk_4YH8lnq-4AR2N6JO-60" value="" style="endArrow=classic;html=1;rounded=0;exitX=1;exitY=0.5;exitDx=0;exitDy=0;" edge="1" parent="1" source="usk_4YH8lnq-4AR2N6JO-50">
          <mxGeometry width="50" height="50" relative="1" as="geometry">
            <mxPoint x="610" y="260" as="sourcePoint" />
            <mxPoint x="600" y="240" as="targetPoint" />
          </mxGeometry>
        </mxCell>
        <mxCell id="usk_4YH8lnq-4AR2N6JO-62" value="" style="edgeStyle=orthogonalEdgeStyle;rounded=0;orthogonalLoop=1;jettySize=auto;html=1;" edge="1" parent="1" source="usk_4YH8lnq-4AR2N6JO-63" target="usk_4YH8lnq-4AR2N6JO-64">
          <mxGeometry relative="1" as="geometry" />
        </mxCell>
        <mxCell id="usk_4YH8lnq-4AR2N6JO-63" value="Conv2dT" style="whiteSpace=wrap;html=1;aspect=fixed;fillColor=#d0cee2;strokeColor=#56517e;" vertex="1" parent="1">
          <mxGeometry x="600" y="190" width="100" height="100" as="geometry" />
        </mxCell>
        <mxCell id="usk_4YH8lnq-4AR2N6JO-64" value="relu" style="whiteSpace=wrap;html=1;aspect=fixed;fillColor=#dae8fc;strokeColor=#6c8ebf;" vertex="1" parent="1">
          <mxGeometry x="730" y="190" width="100" height="100" as="geometry" />
        </mxCell>
        <mxCell id="usk_4YH8lnq-4AR2N6JO-65" value="BatchNorm" style="whiteSpace=wrap;html=1;aspect=fixed;fillColor=#fff2cc;strokeColor=#d6b656;" vertex="1" parent="1">
          <mxGeometry x="860" y="190" width="100" height="100" as="geometry" />
        </mxCell>
        <mxCell id="usk_4YH8lnq-4AR2N6JO-66" value="" style="edgeStyle=orthogonalEdgeStyle;rounded=0;orthogonalLoop=1;jettySize=auto;html=1;" edge="1" parent="1">
          <mxGeometry relative="1" as="geometry">
            <mxPoint x="830" y="239.71" as="sourcePoint" />
            <mxPoint x="860" y="239.71" as="targetPoint" />
          </mxGeometry>
        </mxCell>
        <mxCell id="usk_4YH8lnq-4AR2N6JO-68" value="" style="shape=curlyBracket;whiteSpace=wrap;html=1;rounded=1;labelPosition=left;verticalLabelPosition=middle;align=right;verticalAlign=middle;rotation=-90;" vertex="1" parent="1">
          <mxGeometry x="770" y="120" width="20" height="360" as="geometry" />
        </mxCell>
        <mxCell id="usk_4YH8lnq-4AR2N6JO-69" value="N veces" style="text;html=1;align=center;verticalAlign=middle;resizable=0;points=[];autosize=1;strokeColor=none;fillColor=none;" vertex="1" parent="1">
          <mxGeometry x="745" y="310" width="70" height="30" as="geometry" />
        </mxCell>
        <mxCell id="usk_4YH8lnq-4AR2N6JO-70" value="" style="endArrow=classic;html=1;rounded=0;" edge="1" parent="1">
          <mxGeometry width="50" height="50" relative="1" as="geometry">
            <mxPoint x="960" y="240" as="sourcePoint" />
            <mxPoint x="1000" y="220" as="targetPoint" />
          </mxGeometry>
        </mxCell>
        <mxCell id="usk_4YH8lnq-4AR2N6JO-71" value="x4" style="text;html=1;align=center;verticalAlign=middle;resizable=0;points=[];autosize=1;strokeColor=none;fillColor=none;" vertex="1" parent="1">
          <mxGeometry x="995" y="203" width="40" height="30" as="geometry" />
        </mxCell>
        <mxCell id="usk_4YH8lnq-4AR2N6JO-72" value="" style="endArrow=classic;html=1;rounded=0;" edge="1" parent="1">
          <mxGeometry width="50" height="50" relative="1" as="geometry">
            <mxPoint x="960" y="240" as="sourcePoint" />
            <mxPoint x="1000" y="240" as="targetPoint" />
          </mxGeometry>
        </mxCell>
        <mxCell id="usk_4YH8lnq-4AR2N6JO-73" value="x2" style="text;html=1;align=center;verticalAlign=middle;resizable=0;points=[];autosize=1;strokeColor=none;fillColor=none;" vertex="1" parent="1">
          <mxGeometry x="995" y="225" width="40" height="30" as="geometry" />
        </mxCell>
        <mxCell id="usk_4YH8lnq-4AR2N6JO-74" value="" style="endArrow=classic;html=1;rounded=0;" edge="1" parent="1">
          <mxGeometry width="50" height="50" relative="1" as="geometry">
            <mxPoint x="960" y="240" as="sourcePoint" />
            <mxPoint x="1000" y="260" as="targetPoint" />
          </mxGeometry>
        </mxCell>
        <mxCell id="usk_4YH8lnq-4AR2N6JO-75" value="x1" style="text;html=1;align=center;verticalAlign=middle;resizable=0;points=[];autosize=1;strokeColor=none;fillColor=none;" vertex="1" parent="1">
          <mxGeometry x="995" y="248" width="40" height="30" as="geometry" />
        </mxCell>
        <mxCell id="usk_4YH8lnq-4AR2N6JO-76" value="A" style="text;html=1;align=center;verticalAlign=middle;resizable=0;points=[];autosize=1;strokeColor=none;fillColor=none;" vertex="1" parent="1">
          <mxGeometry x="440" y="400" width="30" height="30" as="geometry" />
        </mxCell>
        <mxCell id="usk_4YH8lnq-4AR2N6JO-77" value="" style="edgeStyle=orthogonalEdgeStyle;rounded=0;orthogonalLoop=1;jettySize=auto;html=1;" edge="1" parent="1" source="usk_4YH8lnq-4AR2N6JO-78" target="usk_4YH8lnq-4AR2N6JO-79">
          <mxGeometry relative="1" as="geometry" />
        </mxCell>
        <mxCell id="usk_4YH8lnq-4AR2N6JO-78" value="Conv2dT" style="whiteSpace=wrap;html=1;aspect=fixed;fillColor=#d0cee2;strokeColor=#56517e;" vertex="1" parent="1">
          <mxGeometry x="430" y="365" width="100" height="100" as="geometry" />
        </mxCell>
        <mxCell id="usk_4YH8lnq-4AR2N6JO-79" value="relu" style="whiteSpace=wrap;html=1;aspect=fixed;fillColor=#dae8fc;strokeColor=#6c8ebf;" vertex="1" parent="1">
          <mxGeometry x="560" y="365" width="100" height="100" as="geometry" />
        </mxCell>
        <mxCell id="usk_4YH8lnq-4AR2N6JO-80" value="BatchNorm" style="whiteSpace=wrap;html=1;aspect=fixed;fillColor=#fff2cc;strokeColor=#d6b656;" vertex="1" parent="1">
          <mxGeometry x="690" y="365" width="100" height="100" as="geometry" />
        </mxCell>
        <mxCell id="usk_4YH8lnq-4AR2N6JO-81" value="" style="edgeStyle=orthogonalEdgeStyle;rounded=0;orthogonalLoop=1;jettySize=auto;html=1;" edge="1" parent="1">
          <mxGeometry relative="1" as="geometry">
            <mxPoint x="660" y="414.71000000000004" as="sourcePoint" />
            <mxPoint x="690" y="414.71000000000004" as="targetPoint" />
          </mxGeometry>
        </mxCell>
        <mxCell id="usk_4YH8lnq-4AR2N6JO-83" value="" style="edgeStyle=orthogonalEdgeStyle;rounded=0;orthogonalLoop=1;jettySize=auto;html=1;" edge="1" parent="1">
          <mxGeometry relative="1" as="geometry">
            <mxPoint x="400" y="414.89" as="sourcePoint" />
            <mxPoint x="430" y="414.89" as="targetPoint" />
          </mxGeometry>
        </mxCell>
        <mxCell id="usk_4YH8lnq-4AR2N6JO-85" value="" style="shape=curlyBracket;whiteSpace=wrap;html=1;rounded=1;labelPosition=left;verticalLabelPosition=middle;align=right;verticalAlign=middle;rotation=-90;" vertex="1" parent="1">
          <mxGeometry x="600" y="290" width="20" height="360" as="geometry" />
        </mxCell>
        <mxCell id="usk_4YH8lnq-4AR2N6JO-86" value="2 veces" style="text;html=1;align=center;verticalAlign=middle;resizable=0;points=[];autosize=1;strokeColor=none;fillColor=none;" vertex="1" parent="1">
          <mxGeometry x="580" y="480" width="60" height="30" as="geometry" />
        </mxCell>
        <mxCell id="usk_4YH8lnq-4AR2N6JO-89" value="x2" style="text;html=1;align=center;verticalAlign=middle;resizable=0;points=[];autosize=1;strokeColor=none;fillColor=none;" vertex="1" parent="1">
          <mxGeometry x="370" y="549" width="40" height="30" as="geometry" />
        </mxCell>
        <mxCell id="usk_4YH8lnq-4AR2N6JO-90" value="" style="edgeStyle=orthogonalEdgeStyle;rounded=0;orthogonalLoop=1;jettySize=auto;html=1;" edge="1" parent="1" source="usk_4YH8lnq-4AR2N6JO-91" target="usk_4YH8lnq-4AR2N6JO-92">
          <mxGeometry relative="1" as="geometry" />
        </mxCell>
        <mxCell id="usk_4YH8lnq-4AR2N6JO-91" value="Conv2dT" style="whiteSpace=wrap;html=1;aspect=fixed;fillColor=#d0cee2;strokeColor=#56517e;" vertex="1" parent="1">
          <mxGeometry x="430" y="515" width="100" height="100" as="geometry" />
        </mxCell>
        <mxCell id="usk_4YH8lnq-4AR2N6JO-92" value="relu" style="whiteSpace=wrap;html=1;aspect=fixed;fillColor=#dae8fc;strokeColor=#6c8ebf;" vertex="1" parent="1">
          <mxGeometry x="560" y="515" width="100" height="100" as="geometry" />
        </mxCell>
        <mxCell id="usk_4YH8lnq-4AR2N6JO-93" value="BatchNorm" style="whiteSpace=wrap;html=1;aspect=fixed;fillColor=#fff2cc;strokeColor=#d6b656;" vertex="1" parent="1">
          <mxGeometry x="690" y="515" width="100" height="100" as="geometry" />
        </mxCell>
        <mxCell id="usk_4YH8lnq-4AR2N6JO-94" value="" style="edgeStyle=orthogonalEdgeStyle;rounded=0;orthogonalLoop=1;jettySize=auto;html=1;" edge="1" parent="1">
          <mxGeometry relative="1" as="geometry">
            <mxPoint x="660" y="564.71" as="sourcePoint" />
            <mxPoint x="690" y="564.71" as="targetPoint" />
          </mxGeometry>
        </mxCell>
        <mxCell id="usk_4YH8lnq-4AR2N6JO-95" value="" style="edgeStyle=orthogonalEdgeStyle;rounded=0;orthogonalLoop=1;jettySize=auto;html=1;" edge="1" parent="1">
          <mxGeometry relative="1" as="geometry">
            <mxPoint x="400" y="564.89" as="sourcePoint" />
            <mxPoint x="430" y="564.89" as="targetPoint" />
          </mxGeometry>
        </mxCell>
        <mxCell id="usk_4YH8lnq-4AR2N6JO-96" value="" style="shape=curlyBracket;whiteSpace=wrap;html=1;rounded=1;labelPosition=left;verticalLabelPosition=middle;align=right;verticalAlign=middle;rotation=-90;" vertex="1" parent="1">
          <mxGeometry x="600" y="440" width="20" height="360" as="geometry" />
        </mxCell>
        <mxCell id="usk_4YH8lnq-4AR2N6JO-97" value="1 vez" style="text;html=1;align=center;verticalAlign=middle;resizable=0;points=[];autosize=1;strokeColor=none;fillColor=none;" vertex="1" parent="1">
          <mxGeometry x="585" y="630" width="50" height="30" as="geometry" />
        </mxCell>
        <mxCell id="usk_4YH8lnq-4AR2N6JO-98" value="" style="endArrow=classic;html=1;rounded=0;" edge="1" parent="1">
          <mxGeometry width="50" height="50" relative="1" as="geometry">
            <mxPoint x="790" y="564.88" as="sourcePoint" />
            <mxPoint x="820" y="564.88" as="targetPoint" />
          </mxGeometry>
        </mxCell>
        <mxCell id="usk_4YH8lnq-4AR2N6JO-100" value="x4" style="text;html=1;align=center;verticalAlign=middle;resizable=0;points=[];autosize=1;strokeColor=none;fillColor=none;" vertex="1" parent="1">
          <mxGeometry x="370" y="400" width="40" height="30" as="geometry" />
        </mxCell>
        <mxCell id="usk_4YH8lnq-4AR2N6JO-104" value="Conv2dT" style="whiteSpace=wrap;html=1;aspect=fixed;fillColor=#d0cee2;strokeColor=#56517e;" vertex="1" parent="1">
          <mxGeometry x="1035" y="200" width="80" height="80" as="geometry" />
        </mxCell>
        <mxCell id="usk_4YH8lnq-4AR2N6JO-105" value="" style="endArrow=classic;html=1;rounded=0;exitX=1;exitY=0.5;exitDx=0;exitDy=0;entryX=-0.067;entryY=0.5;entryDx=0;entryDy=0;entryPerimeter=0;" edge="1" parent="1" source="usk_4YH8lnq-4AR2N6JO-104" target="usk_4YH8lnq-4AR2N6JO-106">
          <mxGeometry width="50" height="50" relative="1" as="geometry">
            <mxPoint x="880" y="480" as="sourcePoint" />
            <mxPoint x="880" y="480" as="targetPoint" />
          </mxGeometry>
        </mxCell>
        <mxCell id="usk_4YH8lnq-4AR2N6JO-106" value="Output" style="text;html=1;align=center;verticalAlign=middle;resizable=0;points=[];autosize=1;strokeColor=none;fillColor=none;" vertex="1" parent="1">
          <mxGeometry x="1169" y="225" width="60" height="30" as="geometry" />
        </mxCell>
        <mxCell id="usk_4YH8lnq-4AR2N6JO-108" value="" style="endArrow=classic;html=1;rounded=0;" edge="1" parent="1">
          <mxGeometry width="50" height="50" relative="1" as="geometry">
            <mxPoint x="790" y="414.76" as="sourcePoint" />
            <mxPoint x="820" y="414.76" as="targetPoint" />
          </mxGeometry>
        </mxCell>
        <mxCell id="usk_4YH8lnq-4AR2N6JO-110" value="x1" style="text;html=1;align=center;verticalAlign=middle;resizable=0;points=[];autosize=1;strokeColor=none;fillColor=none;" vertex="1" parent="1">
          <mxGeometry x="369" y="654" width="40" height="30" as="geometry" />
        </mxCell>
        <mxCell id="usk_4YH8lnq-4AR2N6JO-111" value="" style="edgeStyle=orthogonalEdgeStyle;rounded=0;orthogonalLoop=1;jettySize=auto;html=1;" edge="1" parent="1">
          <mxGeometry relative="1" as="geometry">
            <mxPoint x="400" y="668" as="sourcePoint" />
            <mxPoint x="820" y="668" as="targetPoint" />
          </mxGeometry>
        </mxCell>
        <mxCell id="usk_4YH8lnq-4AR2N6JO-112" value="(ConexiÃ³n directa)" style="edgeLabel;html=1;align=center;verticalAlign=middle;resizable=0;points=[];" vertex="1" connectable="0" parent="usk_4YH8lnq-4AR2N6JO-111">
          <mxGeometry x="-0.066" y="1" relative="1" as="geometry">
            <mxPoint x="12" y="12" as="offset" />
          </mxGeometry>
        </mxCell>
        <mxCell id="usk_4YH8lnq-4AR2N6JO-115" value="&lt;font style=&quot;font-size: 21px;&quot;&gt;Red generadora (Sin U-Net)&lt;/font&gt;" style="text;html=1;align=center;verticalAlign=middle;resizable=0;points=[];autosize=1;strokeColor=none;fillColor=none;" vertex="1" parent="1">
          <mxGeometry x="440" y="115" width="290" height="40" as="geometry" />
        </mxCell>
      </root>
    </mxGraphModel>
  </diagram>
</mxfile>
